<svg id="Layer_1" data-name="Layer 1" xmlns="http://www.w3.org/2000/svg" viewBox="0 0 500 500"><defs><style>.cls-1{fill:#9ad412;}</style></defs><path class="cls-1" d="m 63.114132,142.22517 c -3.323248,-3.38729 -4.83028,-5.17766 -7.182466,-8.53281 -4.93802,-7.04358 -8.334077,-14.5721 -10.360425,-22.96741 -1.386442,-5.74413 -1.879574,-9.83776 -1.880002,-15.606417 -0.0013,-18.170487 6.904686,-34.878414 19.709203,-47.68293 10.316807,-10.316807 23.137635,-16.811633 37.573428,-19.034097 5.31221,-0.817842 7.76257,-1.001154 11.50938,-0.861017 5.22476,0.195414 10.08073,0.850346 14.41979,1.94482 0.87312,0.220234 2.00422,0.504027 2.51354,0.63065 4.11025,1.021853 12.00937,4.416126 16.30163,7.004856 15.57783,9.395224 26.69792,24.418059 30.93977,41.798506 1.37508,5.634207 1.9659,10.534007 1.96893,16.32876 0.005,9.440659 -2.18953,19.276989 -6.23574,27.950679 -0.49821,1.06799 -0.90584,1.9843 -0.90584,2.03623 0,0.30645 -3.66951,6.32872 -5.11199,8.38961 -3.07087,4.38742 -9.66223,11.70777 -10.12509,11.24491 -0.0942,-0.0942 0.96533,-1.39747 2.35456,-2.8961 3.30822,-3.56875 4.8753,-5.5417 7.20798,-9.0748 5.55211,-8.40931 8.82447,-17.18381 10.23117,-27.43381 0.43636,-3.17959 0.4377,-13.330679 0.002,-16.721931 -1.60158,-12.472503 -7.16121,-24.880982 -15.28711,-34.119412 -8.20507,-9.32842 -17.08905,-15.321952 -28.69455,-19.358615 -14.6213,-5.08563 -31.94506,-4.465982 -46.302081,1.656165 -2.053985,0.875863 -3.05801,1.372038 -7.011459,3.464965 -2.072452,1.09714 -6.921212,4.448671 -9.392709,6.492369 -4.851083,4.011395 -10.122397,10.005708 -13.638233,15.508814 -4.015942,6.285886 -7.67252,15.53542 -8.890708,22.489583 -1.021017,5.828593 -1.352181,14.660747 -0.73361,19.565432 0.92166,7.3079 3.013922,14.6578 5.786938,20.32891 0.589295,1.20517 1.071446,2.24332 1.071446,2.30699 0,0.0637 0.614573,1.16122 1.365718,2.43899 2.721222,4.62906 5.758326,8.67847 9.311569,12.41523 1.403533,1.47602 2.55188,2.75594 2.55188,2.84427 0,0.45497 -0.639186,-0.0768 -3.067029,-2.55139 z"/></svg>