<svg xmlns="http://www.w3.org/2000/svg" fill="none" viewBox="0 0 32 32">
  <path
     fill="#d4760a"
     d="M 5.1193256,27.752824 C 0.25503048,23.021565 -0.67101462,14.873257 2.9925371,9.1625976 6.2274606,3.8686988 12.884694,0.88803811 18.97467,2.256129 24.685387,3.4055691 29.537463,8.0538351 30.747037,13.7788 c 1.175898,5.112476 -0.503008,10.804856 -4.399192,14.342592 0.321158,-0.564945 1.497288,-1.700247 1.979768,-2.61155 C 31.478548,20.733078 31.40869,14.06595 28.117437,9.3773842 25.091066,4.8043308 19.373971,2.2169225 13.943309,3.0446251 8.1807676,3.7503408 3.1040696,8.1997917 1.7013862,13.840314 c -1.28891072,4.69614 -0.032951,9.97349 3.2640363,13.56338 0.4758433,0.502715 1.3391867,1.518043 0.1539031,0.34913 z"/>
  <path
     fill="#3092ca"
     d="M 0.34302378,30.659638 C 4.1082408,29.234969 8.6479165,28.299 11.621802,27.959506 11.070991,27.707871 9.9495392,27.003758 9.9495392,27.003758 c 0,0 -0.0905,-2.163082 -0.0905,-3.240016 2.4947648,1.839983 6.0325468,2.553105 8.9101078,1.230763 1.605974,-1.046496 1.388742,-3.765728 -0.342964,-4.583176 -2.500009,-1.65135 -5.950325,-1.894391 -7.790101,-4.479719 -1.6148355,-2.442026 -0.601886,-6.1271835 2.051785,-7.3860509 2.821729,-1.6254088 6.333857,-1.4612473 9.321278,-0.4488589 -0.09803,2.2414088 -0.04607,1.3803933 -0.232898,3.1442278 -1.72434,-1.100251 -3.942957,-1.5222777 -5.963741,-1.11771 -1.590935,0.203156 -3.028785,1.660353 -2.649116,3.337328 0.4475,1.864937 2.514518,2.466571 4.09194,3.071571 2.167777,0.88629 4.745433,1.868414 5.614511,4.260453 0.834554,2.718822 0.262594,3.597621 -1.050713,5.342014 -0.892691,1.092944 -2.737326,1.722115 -2.737326,1.722115 4.376903,0.298557 9.239873,1.460972 12.643991,3.216292 C 16.818032,27.650633 12.58855,28.509273 0.34302568,30.659638 Z"/>

</svg>
